<svg width="777" height="170" viewBox="0 0 777 170" fill="none" xmlns="http://www.w3.org/2000/svg">
<path d="M108.206 133H87.7613L82.1213 115.657H48.4223L42.9233 133H22.4783L54.6263 41.068C56.0363 37.872 57.5873 35.663 59.2793 34.441C61.0653 33.219 63.2273 32.608 65.7653 32.608C68.3033 32.608 70.3243 33.172 71.8283 34.3C73.4263 35.428 74.8363 37.684 76.0583 41.068L108.206 133ZM77.6093 99.16L65.7653 59.398L53.3573 99.16H77.6093ZM197.98 133H175.279L155.68 95.776H141.58V133H121.981V54.181C121.981 46.661 123.72 41.209 127.198 37.825C130.676 34.347 136.504 32.608 144.682 32.608H161.32C171.284 32.608 179.18 35.663 185.008 41.773C190.93 47.789 193.891 55.45 193.891 64.756C193.891 71.524 192.105 77.399 188.533 82.381C185.055 87.269 180.731 90.653 175.561 92.533L197.98 133ZM160.051 79.42C164.187 79.42 167.571 78.01 170.203 75.19C172.929 72.276 174.292 68.704 174.292 64.474C174.292 60.15 172.976 56.672 170.344 54.04C167.806 51.408 164.375 50.092 160.051 50.092H150.322C144.494 50.092 141.58 53.053 141.58 58.975V79.42H160.051ZM259.498 79.843L294.043 133H271.201L247.513 95.071L233.836 113.401V133H214.237V32.608H233.836V88.726L271.765 32.608H291.505L259.498 79.843ZM374.137 133H338.605C327.325 133 319.382 131.073 314.776 127.219C310.264 123.271 308.008 116.362 308.008 106.492V32.608H374.137V50.092H327.607V73.639H360.178L358.768 91.123H327.607V105.082C327.607 109.03 328.5 111.756 330.286 113.26C332.072 114.764 335.315 115.516 340.015 115.516H374.137V133ZM412.978 133H393.379V32.608H412.978V133Z" fill="url(#paint0_linear)"/>
<path d="M502.939 50.092H476.008V133H456.409V50.092H429.619V32.608H502.939V50.092ZM584.337 133H548.805C537.525 133 529.582 131.073 524.976 127.219C520.464 123.271 518.208 116.362 518.208 106.492V32.608H584.337V50.092H537.807V73.639H570.378L568.968 91.123H537.807V105.082C537.807 109.03 538.7 111.756 540.486 113.26C542.272 114.764 545.515 115.516 550.215 115.516H584.337V133ZM654.339 94.084H672.528C672.528 106.868 669.332 116.691 662.94 123.553C656.548 130.415 647.524 133.846 635.868 133.846C610.206 133.846 597.375 118.759 597.375 88.585V80.125C597.375 56.343 603.955 41.444 617.115 35.428C622.285 32.984 628.536 31.762 635.868 31.762C646.584 31.762 655.279 34.723 661.953 40.645C668.721 46.473 672.105 54.933 672.105 66.025H653.775C652.741 60.479 650.908 56.296 648.276 53.476C645.644 50.656 641.508 49.246 635.868 49.246C629.288 49.246 624.4 51.314 621.204 55.45C618.948 58.364 617.632 63.346 617.256 70.396C617.068 72.652 616.974 75.707 616.974 79.561V88.303C616.974 99.113 618.478 106.492 621.486 110.44C624.588 114.388 629.382 116.362 635.868 116.362C642.448 116.362 646.96 114.576 649.404 111.004C651.942 107.338 653.587 101.698 654.339 94.084ZM763.814 133H744.215V92.392H707.414V133H687.815V32.608H707.414V75.049H744.215V32.608H763.814V133Z" fill="url(#paint1_linear)"/>
<defs>
<linearGradient id="paint0_linear" x1="163.5" y1="-63" x2="233" y2="186.5" gradientUnits="userSpaceOnUse">
<stop stop-color="#09FFB5"/>
<stop offset="1" stop-color="#5EEC07"/>
</linearGradient>
<linearGradient id="paint1_linear" x1="423" y1="41" x2="880" y2="262" gradientUnits="userSpaceOnUse">
<stop stop-color="#8321FF"/>
<stop offset="1" stop-color="#0989FF"/>
</linearGradient>
</defs>
</svg>
